# xmcd
#
# Track frame offsets: 
#        150
#        12625
#        27137
#        39903
#        53438
#        66760
#        80015
#        93042
#        106761
#        119561
#        133059
#        146635
#        161207
#
# Disc length: 2328 seconds
#
# Revision: 1
# Processed by: cddbd v1.5.2PL0 Copyright (c) Steve Scherf et al.
# Submitted via: ExactAudioCopy v0.99pb5
#
DISCID=a809160d
DTITLE=Various Artist - Robert Johnson Reborn And Remastered  [CD2 Bonus)
DYEAR=2010
DGENRE=Blues
TTITLE0=Elmore James - Dust My Broom
TTITLE1=Kokomo Arnold - How Long, How Long Blues
TTITLE2=Skip James - I'm So Glad
TTITLE3=Willie Brown - Future Blues
TTITLE4=Son House - Walkin' Blues
TTITLE5=Roosvelt Sykes - Sweet Old Chicago
TTITLE6=Robert Lockwood Jr - Take A Little Walk With Me
TTITLE7=Robert Nighthawk - Black Angel Blues
TTITLE8=Howlin' Wolf (feat. Willie Johnson) - I Want Your Picture
TTITLE9=Sonny Boy Williamson - Good Mornin' Little School Girl
TTITLE10=Sonny Boy Williamson - Eyesight To The Blind
TTITLE11=Honeyboy Edwards - Wind Howlin' Blues
TTITLE12=Bukka White - Shake 'Em On Down
EXTD=YEAR: 2010
EXTT0=
EXTT1=
EXTT2=
EXTT3=
EXTT4=
EXTT5=
EXTT6=
EXTT7=
EXTT8=
EXTT9=
EXTT10=
EXTT11=
EXTT12=
PLAYORDER=
